<svg width="48" height="53" viewBox="0 0 48 53" fill="none" xmlns="http://www.w3.org/2000/svg">
<path d="M23.6607 9.63636C21.0344 9.63636 18.9286 11.7805 18.9286 14.4545C18.9286 17.1286 21.0344 19.2727 23.6607 19.2727C26.2871 19.2727 28.3929 17.1286 28.3929 14.4545C28.3929 11.7805 26.2871 9.63636 23.6607 9.63636ZM47.3214 0V12.0455H42.5893V7.22727H4.73214V12.0455H0V0H4.73214V4.81818H42.5893V0H47.3214ZM30.7589 24.7173V53H26.0268V40.9545H21.2946V53H16.5625V24.7173C11.6647 22.0914 8.28125 16.8636 8.28125 10.8409V9.63636H13.0134V10.8409C13.0134 16.8636 17.7455 21.6818 23.6607 21.6818C29.5759 21.6818 34.308 16.8636 34.308 10.8409V9.63636H39.0402V10.8409C39.0402 16.8636 35.6567 22.0914 30.7589 24.7173Z" fill="#409915"/>
</svg>
